<svg width="1280" height="720" xmlns="http://www.w3.org/2000/svg" xmlns:xlink="http://www.w3.org/1999/xlink" overflow="hidden"><defs><clipPath id="clip0"><rect x="0" y="0" width="1280" height="720"/></clipPath></defs><g clip-path="url(#clip0)"><rect x="0" y="0" width="1280" height="720" fill="#FFFFFF"/><rect x="0.500053" y="0.500053" width="1280" height="720" stroke="#000000" stroke-width="1.33333" stroke-miterlimit="8" fill="#F8CBAD"/><path d="M379 174.5C379 168.701 383.701 164 389.5 164L629.5 164C635.299 164 640 168.701 640 174.5L640 216.5C640 222.299 635.299 227 629.5 227L389.5 227C383.701 227 379 222.299 379 216.5Z" fill="#ED7D31" fill-rule="evenodd"/><text fill="#FFFFFF" font-family="Calibri,Calibri_MSFontService,sans-serif" font-weight="700" font-size="24" transform="translate(467.833 203)">Cogneur</text><path d="M680 174.5C680 168.701 684.701 164 690.5 164L931.5 164C937.299 164 942 168.701 942 174.5L942 216.5C942 222.299 937.299 227 931.5 227L690.5 227C684.701 227 680 222.299 680 216.5Z" fill="#ED7D31" fill-rule="evenodd"/><text fill="#FFFFFF" font-family="Calibri,Calibri_MSFontService,sans-serif" font-weight="700" font-size="24" transform="translate(759.91 203)">Bavardeur</text><rect x="0" y="507" width="63" height="213" fill="#F4B183"/><rect x="0" y="-6.11104e-15" width="213" height="63" fill="#F4B183"/><rect x="1067" y="-6.11104e-15" width="213" height="63" fill="#F4B183"/><path d="M67 297.501C67 277.894 82.8942 262 102.501 262L293.499 262C313.106 262 329 277.894 329 297.501L329 439.499C329 459.106 313.106 475 293.499 475L102.501 475C82.8942 475 67 459.106 67 439.499Z" fill="#ED7D31" fill-rule="evenodd"/><text fill="#FFFFFF" font-family="Calibri,Calibri_MSFontService,sans-serif" font-weight="400" font-size="20" transform="translate(94.26 340)">Parfait pour effectuer des <tspan font-size="20" x="22.7533" y="24">tâches manuelles et </tspan><tspan font-size="20" x="6.34" y="48">ingrates qui nécessite ni </tspan><tspan font-size="20" x="9.14667" y="72">intelligence ni réflexion</tspan></text><path d="M379 297.501C379 277.894 394.894 262 414.501 262L604.499 262C624.106 262 640 277.894 640 297.501L640 439.499C640 459.106 624.106 475 604.499 475L414.501 475C394.894 475 379 459.106 379 439.499Z" fill="#ED7D31" fill-rule="evenodd"/><text fill="#FFFFFF" font-family="Calibri,Calibri_MSFontService,sans-serif" font-weight="400" font-size="20" transform="translate(417.013 328)">Principalement utilisés <tspan font-size="20" x="-2.20001" y="24">pour les entraînements </tspan><tspan font-size="20" x="-6.04666" y="48">ainsi que sur les champs </tspan><tspan font-size="20" x="-0.839996" y="72">de batailles de grandes </tspan><tspan font-size="20" x="-5.72665" y="96">envergures à feu nourrit</tspan></text><path d="M680 297.501C680 277.894 695.894 262 715.501 262L906.499 262C926.106 262 942 277.894 942 297.501L942 439.499C942 459.106 926.106 475 906.499 475L715.501 475C695.894 475 680 459.106 680 439.499Z" fill="#ED7D31" fill-rule="evenodd"/><text fill="#FFFFFF" font-family="Calibri,Calibri_MSFontService,sans-serif" font-weight="400" font-size="20" transform="translate(724.427 280)">Nous<tspan font-size="20" x="46.1666" y="0">vivons</tspan><tspan font-size="20" x="101.98" y="0">dans</tspan><tspan font-size="20" x="144.813" y="0">des</tspan><tspan font-size="20" x="-22.08" y="24">mondes dans lesquels tout </tspan><tspan font-size="20" x="-12.84" y="48">passe par nos </tspan><tspan font-size="20" x="102.16" y="48">holocoms</tspan><tspan font-size="20" x="180.993" y="48">, </tspan><tspan font-size="20" x="-11.3533" y="72">nous n’avons plus de vie </tspan><tspan font-size="20" x="-18.9467" y="96">sociale. Il vous permet  de </tspan><tspan font-size="20" x="3.02667" y="120">vous recentrer sur le </tspan><tspan font-size="20" x="-22.4267" y="144">monde qui vous entoure. Il </tspan><tspan font-size="20" x="1.75995" y="168">sera votre plus fidèle </tspan><tspan font-size="20" x="38.74" y="192">compagnon</tspan></text><path d="M969 297.501C969 277.894 984.894 262 1004.5 262L1195.5 262C1215.11 262 1231 277.894 1231 297.501L1231 439.499C1231 459.106 1215.11 475 1195.5 475L1004.5 475C984.894 475 969 459.106 969 439.499Z" fill="#ED7D31" fill-rule="evenodd"/><text fill="#FFFFFF" font-family="Calibri,Calibri_MSFontService,sans-serif" font-weight="400" font-size="20" transform="translate(998.22 340)">C<tspan font-size="20" x="10.6666" y="0">apable de se charger de </tspan><tspan font-size="20" x="41.4867" y="24">l’ensemble des </tspan><tspan font-size="20" x="-7.14001" y="48">négociations dans le calme </tspan><tspan font-size="20" x="46.9199" y="72">le plus totale.</tspan></text><path d="M67 545.5C67 539.701 71.7011 535 77.5002 535L1206.5 535C1212.3 535 1217 539.701 1217 545.5L1217 587.5C1217 593.299 1212.3 598 1206.5 598L77.5002 598C71.7011 598 67 593.299 67 587.5Z" fill="#ED7D31" fill-rule="evenodd"/><text fill="#FFFFFF" font-family="Calibri,Calibri_MSFontService,sans-serif" font-weight="700" font-size="27" transform="translate(205.867 575)">Pour chaque achat, un guide d’utilisation du cailloux est gracieusement fourni !</text><path d="M206 578.333 424.25 578.333 642.5 578.333 860.75 578.333 1079 578.333 1079 580.333 860.75 580.333 642.5 580.333 424.25 580.333 206 580.333Z" fill="#FFFFFF" fill-rule="evenodd"/><path d="M67 174.5C67 168.701 71.701 164 77.5001 164L318.5 164C324.299 164 329 168.701 329 174.5L329 216.5C329 222.299 324.299 227 318.5 227L77.5001 227C71.701 227 67 222.299 67 216.5Z" fill="#ED7D31" fill-rule="evenodd"/><text fill="#FFFFFF" font-family="Calibri,Calibri_MSFontService,sans-serif" font-weight="700" font-size="24" transform="translate(146.143 203)">Travailleur</text><path d="M969 174.5C969 168.701 973.701 164 979.5 164L1220.5 164C1226.3 164 1231 168.701 1231 174.5L1231 216.5C1231 222.299 1226.3 227 1220.5 227L979.5 227C973.701 227 969 222.299 969 216.5Z" fill="#ED7D31" fill-rule="evenodd"/><text fill="#FFFFFF" font-family="Calibri,Calibri_MSFontService,sans-serif" font-weight="700" font-size="24" transform="translate(1048.17 203)">Diplomate</text><path d="M1.52588e-05 63 213 63 1.52588e-05 276Z" fill="#F4B183" fill-rule="evenodd"/><path d="M1280 63 1280 276 1067 63Z" fill="#F4B183" fill-rule="evenodd"/><path d="M146 581 168.5 542 191 581Z" fill="#FF0000" fill-rule="evenodd"/><path d="M169 550 169 573.027" stroke="#FFFFFF" stroke-width="4" stroke-miterlimit="8" fill="none" fill-rule="evenodd"/><path d="M166 577C166 575.343 167.343 574 169 574 170.657 574 172 575.343 172 577 172 578.657 170.657 580 169 580 167.343 580 166 578.657 166 577Z" fill="#FFFFFF" fill-rule="evenodd"/><path d="M1091 581 1113.5 542 1136 581Z" fill="#FF0000" fill-rule="evenodd"/><path d="M1113 550 1113 573.027" stroke="#FFFFFF" stroke-width="4" stroke-miterlimit="8" fill="none" fill-rule="evenodd"/><path d="M1110 577C1110 575.343 1111.34 574 1113 574 1114.66 574 1116 575.343 1116 577 1116 578.657 1114.66 580 1113 580 1111.34 580 1110 578.657 1110 577Z" fill="#FFFFFF" fill-rule="evenodd"/><path d="M81 637.5C81 631.701 85.7011 627 91.5002 627L1220.5 627C1226.3 627 1231 631.701 1231 637.5L1231 679.5C1231 685.299 1226.3 690 1220.5 690L91.5002 690C85.7011 690 81 685.299 81 679.5Z" fill="#ED7D31" fill-rule="evenodd"/><text fill="#FFFFFF" font-family="Calibri,Calibri_MSFontService,sans-serif" font-weight="700" font-size="27" transform="translate(335.323 668)">Pour un autre type de cailloux contactez moi directement.</text><path d="M335.337 670.833 549.003 670.833 762.67 670.833 976.337 670.833 976.337 672.833 762.67 672.833 549.003 672.833 335.337 672.833Z" fill="#FFFFFF" fill-rule="evenodd"/><path d="M1217 720 1004 720 1217 507Z" fill="#F4B183" fill-rule="evenodd"/><path d="M63 720 63 507 276 720Z" fill="#F4B183" fill-rule="evenodd"/><rect x="1217" y="507" width="63" height="213" fill="#F4B183"/></g></svg>